<svg xmlns="http://www.w3.org/2000/svg" xml:space="preserve" width="256" height="256"><g style="stroke:none;stroke-width:0;stroke-dasharray:none;stroke-linecap:butt;stroke-linejoin:miter;stroke-miterlimit:10;fill:none;fill-rule:nonzero;opacity:1"><path d="M45 2.024a3.621 3.621 0 0 0-3.268 2.031L29.959 27.911a.678.678 0 0 1-.51.37L3.122 32.107a3.62 3.62 0 0 0-2.941 2.48 3.621 3.621 0 0 0 .922 3.736l19.049 18.569c.16.156.233.38.195.599L15.85 83.71a3.622 3.622 0 0 0 1.449 3.564c1.129.821 2.6.927 3.839.279l23.547-12.381a.68.68 0 0 1 .314-.077c6.722-21.19 5.302-46.217.001-73.071z" style="stroke:none;stroke-width:1;stroke-dasharray:none;stroke-linecap:butt;stroke-linejoin:miter;stroke-miterlimit:10;fill:#ffc850;fill-rule:nonzero;opacity:1" transform="matrix(2.81 0 0 2.81 1.407 1.407)"/><path d="M45 2.024c1.398 0 2.649.778 3.268 2.031l11.773 23.856c.099.2.29.338.51.37l26.326 3.826a3.62 3.62 0 0 1 2.941 2.48 3.621 3.621 0 0 1-.922 3.736L69.847 56.892a.676.676 0 0 0-.195.599L74.15 83.71a3.622 3.622 0 0 1-1.449 3.564 3.629 3.629 0 0 1-3.839.279L45.315 75.172a.68.68 0 0 0-.314-.077C37.08 54.593 38.849 29.395 45 2.024z" style="stroke:none;stroke-width:1;stroke-dasharray:none;stroke-linecap:butt;stroke-linejoin:miter;stroke-miterlimit:10;fill:#ffdc64;fill-rule:nonzero;opacity:1" transform="matrix(2.81 0 0 2.81 1.407 1.407)"/></g></svg>